<svg width="15" height="19" viewBox="0 0 15 19" fill="none" xmlns="http://www.w3.org/2000/svg">
<mask id="mask0_408_3164" style="mask-type:luminance" maskUnits="userSpaceOnUse" x="0" y="0" width="15" height="19">
<rect x="0.75" y="0.779465" width="13.5" height="18" fill="white"/>
</mask>
<g mask="url(#mask0_408_3164)">
<path fill-rule="evenodd" clip-rule="evenodd" d="M11.9543 10.2259C11.9473 8.93569 12.5309 7.96187 13.7121 7.24468C13.0512 6.29898 12.0527 5.77866 10.7344 5.67671C9.48633 5.57827 8.12227 6.40444 7.62305 6.40444C7.0957 6.40444 5.88633 5.71187 4.93711 5.71187C2.97539 5.74351 0.890625 7.27632 0.890625 10.3947C0.890625 11.3158 1.05937 12.2673 1.39687 13.2494C1.84688 14.5396 3.47109 17.7037 5.16563 17.6509C6.05156 17.6298 6.67734 17.0216 7.83047 17.0216C8.94844 17.0216 9.52852 17.6509 10.5164 17.6509C12.225 17.6263 13.6945 14.7505 14.1234 13.4568C11.8313 12.3775 11.9543 10.2927 11.9543 10.2259L11.9543 10.2259ZM9.96444 4.45329C10.9242 3.31423 10.8363 2.27712 10.8082 1.90446C9.96093 1.95368 8.98007 2.48103 8.42108 3.13142C7.80585 3.82751 7.44374 4.68884 7.52108 5.65915C8.43866 5.72946 9.27538 5.25837 9.96444 4.45329V4.45329Z" fill="black"/>
</g>
</svg>
