<svg width="19" height="19" viewBox="0 0 19 19" fill="none" xmlns="http://www.w3.org/2000/svg">
<mask id="mask0_408_3156" style="mask-type:luminance" maskUnits="userSpaceOnUse" x="0" y="0" width="19" height="19">
<rect x="0.5" y="0.645678" width="18" height="18" fill="white"/>
</mask>
<g mask="url(#mask0_408_3156)">
<path fill-rule="evenodd" clip-rule="evenodd" d="M16.8541 8.1768H16.25V8.14568H9.5V11.1457H13.7386C13.1203 12.8921 11.4586 14.1457 9.5 14.1457C7.01488 14.1457 5 12.1308 5 9.64568C5 7.16055 7.01488 5.14568 9.5 5.14568C10.6471 5.14568 11.6907 5.57843 12.4854 6.2853L14.6067 4.16393C13.2673 2.91555 11.4755 2.14568 9.5 2.14568C5.35813 2.14568 2 5.5038 2 9.64568C2 13.7876 5.35813 17.1457 9.5 17.1457C13.6419 17.1457 17 13.7876 17 9.64568C17 9.1428 16.9483 8.65193 16.8541 8.1768V8.1768Z" fill="#FFC107"/>
<path fill-rule="evenodd" clip-rule="evenodd" d="M2.86475 6.1548L5.32887 7.96193C5.99562 6.31118 7.61037 5.14568 9.5 5.14568C10.6471 5.14568 11.6907 5.57843 12.4854 6.2853L14.6067 4.16393C13.2672 2.91555 11.4755 2.14568 9.5 2.14568C6.61925 2.14568 4.121 3.77205 2.86475 6.1548V6.1548Z" fill="#FF3D00"/>
<path fill-rule="evenodd" clip-rule="evenodd" d="M9.50012 17.1457C11.4374 17.1457 13.1976 16.4043 14.5285 15.1987L12.2072 13.2344C11.4542 13.8048 10.5182 14.1457 9.50012 14.1457C7.54937 14.1457 5.89299 12.9018 5.26899 11.1659L2.82324 13.0503C4.06449 15.4792 6.58524 17.1457 9.50012 17.1457V17.1457Z" fill="#4CAF50"/>
<path fill-rule="evenodd" clip-rule="evenodd" d="M16.8541 8.1768H16.25V8.14568H9.5V11.1457H13.7386C13.4416 11.9846 12.902 12.7079 12.206 13.2348C12.2064 13.2344 12.2068 13.2344 12.2071 13.2341L14.5284 15.1983C14.3641 15.3476 17 13.3957 17 9.64568C17 9.1428 16.9483 8.65193 16.8541 8.1768V8.1768Z" fill="#1976D2"/>
</g>
</svg>
